<?xml version="1.0" encoding="utf-8"?>
<!-- Generator: Adobe Illustrator 22.0.0, SVG Export Plug-In . SVG Version: 6.00 Build 0)  -->
<svg version="1.1" id="Layer_1" xmlns="http://www.w3.org/2000/svg" xmlns:xlink="http://www.w3.org/1999/xlink" x="0px" y="0px"
	 viewBox="0 0 50.3 50.3" style="enable-background:new 0 0 50.3 50.3;" xml:space="preserve">
<style type="text/css">
	.st0{fill:#FFFFFF;}
	.st1{fill:none;stroke:#17559F;stroke-width:2;stroke-miterlimit:10;}
	.st2{fill:#17559F;}
</style>
<g>
	<circle class="st0" cx="24.2" cy="24.6" r="18.8"/>
	<path class="st1" d="M19.2,14.7h10c2.8,0,5,2.2,5,5v10c0,2.8-2.2,5-5,5h-10c-2.8,0-5-2.2-5-5v-10C14.2,16.9,16.5,14.7,19.2,14.7z"
		/>
	<path class="st1" d="M28.2,24c0.3,2.2-1.2,4.2-3.4,4.5c-2.2,0.3-4.2-1.2-4.5-3.4s1.2-4.2,3.4-4.5c0.4-0.1,0.8-0.1,1.2,0
		C26.6,20.9,28,22.3,28.2,24z"/>
	<line class="st1" x1="29.7" y1="19.2" x2="29.7" y2="19.2"/>
	<circle class="st2" cx="29.1" cy="18.5" r="1"/>
</g>
<image style="overflow:visible;" width="1920" height="321" xlink:href="B9215BB5.jpg"  transform="matrix(1 0 0 1 -7652 -7652)">
</image>
</svg>
