<?xml version="1.0" encoding="utf-8"?>
<!-- Generator: Adobe Illustrator 22.0.0, SVG Export Plug-In . SVG Version: 6.00 Build 0)  -->
<svg version="1.1" id="Layer_1" xmlns="http://www.w3.org/2000/svg" xmlns:xlink="http://www.w3.org/1999/xlink" x="0px" y="0px"
	 viewBox="0 0 354 74" style="enable-background:new 0 0 354 74;" xml:space="preserve">
<style type="text/css">
	.st0{fill:#FFFFFF;}
</style>
<g>
	<path class="st0" d="M24.6,29.6c-0.8-0.7-1.7-1.7-2.3-2.4c0.8-2.8,1.6-5.7,2.4-8.6v4.3L24.6,29.6z"/>
	<path class="st0" d="M27.1,26.4c-0.2-0.9-0.5-1.9-0.7-2.8c1.7-0.5,3.3-1.1,5.1-1.5L27.1,26.4z"/>
	<path class="st0" d="M21.1,27c-0.9,0.3-1.9,0.5-2.9,0.8l-1.2-5C18.5,24.3,19.6,25.5,21.1,27z"/>
	<path class="st0" d="M36.1,29.7h-6.6c-1.5-0.1-3.3,0.1-4.8,0c0.7-0.7,1.5-1.5,2.2-2.2C30,28.2,33.1,29,36.1,29.7z"/>
	<path class="st0" d="M19.4,29.7c1.5,0.1,3.3,0,5,0.1L22.2,32c-3.1-0.8-6.2-1.7-9.4-2.4L19.4,29.7z"/>
	<path class="st0" d="M27,32.3c-0.8,2.9-1.5,5.8-2.3,8.6c-0.1-3.5-0.1-7.4,0-11C25.4,30.8,26.2,31.4,27,32.3z"/>
	<path class="st0" d="M22.9,36.1c-1.7,0.4-3.5,1-5.2,1.4c1.6-1.5,2.9-3,4.5-4.4C22.3,34.1,22.7,35.1,22.9,36.1z"/>
</g>
<g>
	<path class="st0" d="M37.7,57.3c-1.4,0-2.7-0.2-3.9-0.6c-1.2-0.4-2.3-1-3.1-1.8c-0.9-0.8-1.6-1.8-2-3c-0.5-1.2-0.7-2.6-0.7-4.1
		c0-2,0.3-3.9,1-5.7c0.7-1.7,1.6-3.3,2.9-4.6c1.2-1.3,2.7-2.3,4.5-3c1.8-0.8,3.7-1.1,5.7-1.1c1.2,0,2.4,0.1,3.7,0.5
		c1.2,0.3,2.3,0.8,3.4,1.3l-1.4,6.2h-0.9c-0.7-1-1.5-1.7-2.4-2.1c-0.9-0.5-1.9-0.7-3-0.7c-2,0-3.6,0.8-4.9,2.4
		c-1.2,1.6-1.9,3.6-1.9,6.1c0,1.7,0.4,2.9,1.1,3.8c0.8,0.8,1.9,1.3,3.5,1.3c1.2,0,2.4-0.3,3.4-0.9c1-0.6,1.9-1.2,2.6-1.9h0.9
		l-1.4,6.2c-1.3,0.6-2.4,1.1-3.4,1.3C40.6,57.2,39.3,57.3,37.7,57.3z"/>
	<path class="st0" d="M72.1,42.4c0,2.1-0.3,4.1-1,6c-0.6,1.9-1.5,3.4-2.7,4.8c-1.2,1.4-2.6,2.5-4.2,3.2c-1.6,0.8-3.4,1.1-5.5,1.1
		c-3,0-5.3-0.8-6.9-2.4c-1.6-1.6-2.4-3.8-2.4-6.7c0-2,0.3-3.9,0.9-5.7c0.6-1.8,1.5-3.4,2.6-4.8c1.1-1.4,2.5-2.4,4.2-3.2
		c1.6-0.8,3.5-1.2,5.6-1.2c3,0,5.3,0.8,6.9,2.4C71.3,37.4,72.1,39.6,72.1,42.4z M63.7,49.8c0.6-0.9,1-2,1.3-3.1s0.4-2.5,0.4-4.1
		c0-1.4-0.3-2.4-0.8-3.2c-0.5-0.7-1.4-1.1-2.6-1.1c-0.9,0-1.7,0.2-2.4,0.7s-1.3,1.2-1.8,2.1c-0.5,0.9-0.9,1.9-1.2,3.2
		c-0.3,1.2-0.4,2.5-0.4,3.8c0,1.5,0.3,2.7,0.9,3.3c0.6,0.7,1.4,1,2.5,1c0.8,0,1.5-0.2,2.2-0.7C62.6,51.3,63.2,50.6,63.7,49.8z"/>
	<path class="st0" d="M87,25.4l-6.5,31.3H74l6.5-31.3L87,25.4z"/>
	<path class="st0" d="M109.8,42.4c0,2.1-0.3,4.1-0.9,6s-1.5,3.4-2.7,4.8c-1.2,1.4-2.6,2.5-4.2,3.2c-1.6,0.8-3.4,1.1-5.5,1.1
		c-3,0-5.3-0.8-6.9-2.4c-1.6-1.6-2.4-3.8-2.4-6.7c0-2,0.3-3.9,0.9-5.7s1.5-3.4,2.7-4.8c1.2-1.4,2.5-2.4,4.2-3.2s3.5-1.2,5.6-1.2
		c3,0,5.3,0.8,6.9,2.4C109,37.4,109.8,39.6,109.8,42.4z M101.4,49.8c0.5-0.9,1-2,1.2-3.1c0.3-1.1,0.4-2.5,0.4-4.1
		c0-1.4-0.3-2.4-0.8-3.2c-0.5-0.7-1.4-1.1-2.6-1.1c-0.9,0-1.7,0.2-2.4,0.7c-0.7,0.5-1.3,1.2-1.8,2.1c-0.5,0.9-0.9,1.9-1.2,3.2
		c-0.3,1.2-0.4,2.5-0.4,3.8c0,1.5,0.3,2.7,0.9,3.3c0.6,0.7,1.5,1,2.5,1c0.8,0,1.5-0.2,2.2-0.7C100.3,51.3,100.9,50.6,101.4,49.8z"/>
	<path class="st0" d="M135.3,39.2c0,0.4,0,0.8-0.1,1.3c0,0.5-0.1,1-0.2,1.5l-3,14.7h-6.5l2.3-11.2c0.2-0.8,0.3-1.5,0.4-2.1
		c0.1-0.6,0.1-1.1,0.1-1.6c0-0.9-0.2-1.5-0.6-1.9s-1.1-0.6-2.2-0.6c-0.5,0-1.1,0.1-1.8,0.4c-0.7,0.3-1.4,0.6-2.3,1.1l-3.3,16h-6.5
		l4.7-22.6h6.5l-0.5,2.5c1.3-1,2.5-1.8,3.6-2.3c1.1-0.6,2.3-0.8,3.6-0.8c1.8,0,3.2,0.5,4.2,1.5C134.8,35.9,135.3,37.4,135.3,39.2z"
		/>
	<path class="st0" d="M148.9,34.1l-4.6,22.6h-6.5l4.6-22.6H148.9z M151,25.4l-1.1,5.5h-6.8l1.1-5.5H151z"/>
	<path class="st0" d="M163,54.3c-0.4,0.3-0.9,0.6-1.5,1.1c-0.6,0.4-1.1,0.8-1.6,1c-0.7,0.3-1.3,0.5-1.9,0.7
		c-0.6,0.2-1.4,0.2-2.4,0.2c-1.7,0-3-0.5-4.1-1.6c-1.1-1-1.6-2.4-1.6-4.1c0-1.8,0.4-3.3,1.1-4.5c0.7-1.2,1.8-2.2,3.3-3
		c1.4-0.7,3-1.2,4.9-1.5s4-0.5,6.2-0.7c0-0.1,0-0.2,0.1-0.4c0-0.2,0-0.4,0-0.6c0-1-0.4-1.6-1.2-2s-2-0.6-3.5-0.6
		c-1.1,0-2.2,0.2-3.5,0.6c-1.3,0.4-2.2,0.7-2.9,1h-0.6l1-5.3c0.7-0.2,1.9-0.5,3.5-0.7c1.6-0.3,3.1-0.4,4.7-0.4
		c3.1,0,5.5,0.5,6.9,1.4c1.5,0.9,2.2,2.4,2.2,4.3c0,0.3,0,0.6-0.1,1.1c0,0.4-0.1,0.8-0.2,1.1l-3.2,15.4h-6.4L163,54.3z M164.8,46.1
		c-1.2,0.1-2.2,0.2-3.2,0.4s-1.9,0.4-2.6,0.6c-0.7,0.3-1.3,0.7-1.7,1.2s-0.6,1.3-0.6,2.2c0,0.8,0.3,1.3,0.8,1.6s1.2,0.5,2.2,0.5
		c0.6,0,1.3-0.2,2-0.5s1.4-0.7,2-1.3L164.8,46.1z"/>
	<path class="st0" d="M186.2,57.3c-3.4,0-6.1-0.9-8-2.5c-1.9-1.7-2.8-4.1-2.8-7.1c0-2,0.3-3.9,0.9-5.6c0.6-1.7,1.5-3.2,2.6-4.5
		s2.5-2.3,4.1-3c1.7-0.8,3.5-1.1,5.4-1.1c3,0,5.3,0.7,6.8,2.1c1.5,1.4,2.3,3.4,2.3,6c0,0.9-0.1,1.8-0.2,2.7
		c-0.2,0.9-0.4,1.7-0.6,2.6h-15c0,0.1,0,0.2,0,0.2c0,0.1,0,0.2,0,0.2c0,1.6,0.5,2.8,1.5,3.7s2.5,1.3,4.5,1.3c1.4,0,2.8-0.3,4-0.8
		c1.3-0.5,2.4-1.1,3.3-1.8h0.7l-1.2,5.8c-1.3,0.6-2.6,1.1-4,1.4C189.2,57.2,187.8,57.3,186.2,57.3z M191.2,42.5
		c0-0.2,0.1-0.4,0.1-0.7c0-0.2,0-0.4,0-0.6c0-1.1-0.3-1.9-0.9-2.4c-0.6-0.6-1.4-0.8-2.6-0.8c-1.3,0-2.5,0.4-3.4,1.2
		s-1.6,1.9-2.1,3.4h8.9V42.5z"/>
	<path class="st0" d="M207.1,45.2l-5.7-11.1h6.9l3.2,6.9l5.8-6.9h7.4l-10.3,11.4l5.7,11.2h-6.9l-3.2-6.9l-6,6.9h-7.4L207.1,45.2z"/>
	<path class="st0" d="M247.5,41.4c0,2.1-0.3,4.1-0.9,6c-0.6,2-1.4,3.6-2.5,5c-1.1,1.5-2.3,2.7-3.7,3.5s-2.9,1.3-4.6,1.3
		c-1.1,0-2.1-0.1-3-0.4c-0.9-0.3-1.7-0.7-2.4-1.2l-1.9,9.4H222l6.4-30.9h6.5l-0.5,2.4c1.2-0.9,2.3-1.7,3.4-2.2
		c1-0.5,2.2-0.8,3.4-0.8c2,0,3.6,0.7,4.7,2.1C246.9,37,247.5,38.9,247.5,41.4z M239.1,49.3c0.5-0.8,0.9-1.8,1.2-3
		c0.3-1.1,0.4-2.4,0.4-3.7c0-1.2-0.2-2.1-0.7-2.8c-0.5-0.6-1.3-1-2.6-1c-0.6,0-1.2,0.1-1.9,0.4c-0.6,0.3-1.2,0.6-1.9,1l-2.3,11.4
		c0.4,0.2,0.8,0.3,1.3,0.4c0.5,0.1,1,0.1,1.6,0.1c1.1,0,2.1-0.3,2.9-0.8S238.5,50.1,239.1,49.3z"/>
	<path class="st0" d="M267.2,41h-0.6c-0.3-0.1-0.7-0.2-1.2-0.2s-1-0.1-1.6-0.1c-0.8,0-1.7,0.1-2.5,0.2c-0.8,0.1-1.6,0.4-2.4,0.7
		l-3.1,15.1h-6.5l4.6-22.6h6.5l-0.7,3.3c1.2-1,2.4-1.8,3.7-2.4c1.2-0.6,2.4-0.9,3.7-0.9c0.2,0,0.5,0,0.8,0s0.5,0,0.7,0.1L267.2,41z"
		/>
	<path class="st0" d="M278.9,57.3c-3.4,0-6.1-0.9-7.9-2.5c-1.9-1.7-2.8-4.1-2.8-7.1c0-2,0.3-3.9,0.9-5.6c0.6-1.7,1.5-3.2,2.6-4.5
		s2.5-2.3,4.1-3c1.6-0.8,3.5-1.1,5.4-1.1c3,0,5.3,0.7,6.8,2.1c1.5,1.4,2.3,3.4,2.3,6c0,0.9-0.1,1.8-0.2,2.7
		c-0.2,0.9-0.4,1.7-0.6,2.6h-15c0,0.1,0,0.2,0,0.2c0,0.1,0,0.2,0,0.2c0,1.6,0.5,2.8,1.5,3.7s2.5,1.3,4.5,1.3c1.4,0,2.8-0.3,4-0.8
		c1.3-0.5,2.4-1.1,3.3-1.8h0.7l-1.2,5.8c-1.3,0.6-2.6,1.1-4,1.4C282,57.2,280.5,57.3,278.9,57.3z M283.9,42.5c0-0.2,0.1-0.4,0.1-0.6
		c0-0.2,0-0.4,0-0.6c0-1.1-0.3-1.9-0.9-2.4c-0.6-0.6-1.4-0.8-2.5-0.8c-1.3,0-2.4,0.4-3.4,1.2c-0.9,0.8-1.6,1.9-2.1,3.3L283.9,42.5z"
		/>
	<path class="st0" d="M299.7,57.3c-1.7,0-3.4-0.2-5-0.5c-1.6-0.4-2.8-0.8-3.7-1.3l1.2-6h0.6c0.3,0.3,0.6,0.5,1,0.9
		c0.4,0.3,1,0.6,1.7,1c0.7,0.3,1.4,0.6,2.2,0.8c0.8,0.2,1.7,0.3,2.7,0.3c1.4,0,2.5-0.2,3.3-0.6c0.7-0.4,1.1-0.9,1.1-1.6
		c0-0.5-0.2-1-0.8-1.2c-0.5-0.3-1.6-0.6-3.2-1.1c-2.7-0.7-4.6-1.6-5.6-2.6s-1.5-2.3-1.5-3.8c0-2.5,1-4.5,3-6c2-1.4,4.8-2.2,8.2-2.2
		c1.5,0,3,0.2,4.5,0.5s2.6,0.7,3.3,1.1l-1.2,5.7H311c-0.8-0.7-1.9-1.3-3.1-1.8s-2.4-0.7-3.7-0.7c-1.4,0-2.4,0.2-3.2,0.5
		c-0.7,0.4-1.1,1-1.1,1.7c0,0.6,0.3,1,1,1.4c0.6,0.3,1.6,0.6,3,1c2.5,0.6,4.3,1.4,5.5,2.3c1.1,0.9,1.7,2.3,1.7,3.9
		c0,2.5-1,4.5-3.1,6C305.9,56.6,303.2,57.3,299.7,57.3z"/>
	<path class="st0" d="M321.4,57.3c-1.7,0-3.4-0.2-5-0.5c-1.6-0.4-2.9-0.8-3.7-1.3l1.2-6h0.6c0.3,0.3,0.6,0.5,1,0.9
		c0.4,0.3,1,0.6,1.7,1c0.6,0.3,1.4,0.6,2.2,0.8c0.8,0.2,1.7,0.3,2.7,0.3c1.5,0,2.5-0.2,3.3-0.6c0.7-0.4,1.1-0.9,1.1-1.6
		c0-0.5-0.3-1-0.8-1.2c-0.5-0.3-1.6-0.6-3.2-1.1c-2.7-0.7-4.6-1.6-5.6-2.6s-1.5-2.3-1.5-3.8c0-2.5,1-4.5,3-6c2-1.4,4.8-2.2,8.2-2.2
		c1.5,0,3,0.2,4.5,0.5s2.6,0.7,3.3,1.1l-1.2,5.7h-0.5c-0.8-0.7-1.9-1.3-3.1-1.8s-2.4-0.7-3.7-0.7c-1.4,0-2.4,0.2-3.2,0.5
		c-0.7,0.4-1.1,1-1.1,1.7c0,0.6,0.3,1,1,1.4c0.6,0.3,1.6,0.6,3,1c2.5,0.6,4.4,1.4,5.5,2.3c1.1,0.9,1.7,2.3,1.7,4c0,2.5-1,4.5-3.1,6
		C327.7,56.6,324.9,57.3,321.4,57.3z"/>
</g>
</svg>
