<?xml version="1.0" encoding="utf-8"?>
<!-- Generator: Adobe Illustrator 22.0.0, SVG Export Plug-In . SVG Version: 6.00 Build 0)  -->
<svg version="1.1" id="Layer_1" xmlns="http://www.w3.org/2000/svg" xmlns:xlink="http://www.w3.org/1999/xlink" x="0px" y="0px"
	 viewBox="0 0 278.4 197.4" style="enable-background:new 0 0 278.4 197.4;" xml:space="preserve">
<style type="text/css">
	.st0{fill:#FFFFFF;}
</style>
<g>
	<path class="st0" d="M102.7,49.3c10.1-4.4,22.7-6.8,35.3-6.8c12.6,0,24.1,2.4,34.2,6.8c-19,0.6-34.2,16.2-34.2,35.3
		C138,65.1,122.2,49.3,102.7,49.3z"/>
	<path class="st0" d="M101.6,78.8c-3.2,0-5.8,2.6-5.8,5.8c0,3.2,2.6,5.8,5.8,5.8s5.8-2.6,5.8-5.8C107.4,81.3,104.8,78.8,101.6,78.8z
		"/>
	<path class="st0" d="M172.7,78.7c-3.2,0-5.8,2.6-5.8,5.8s2.6,5.8,5.8,5.8c3.2,0,5.8-2.6,5.8-5.8S175.9,78.7,172.7,78.7z"/>
	<g>
		<path class="st0" d="M102.5,67.4c-9.5,0-17.1,7.7-17.1,17.2c0,9.5,7.7,17.1,17.1,17.1c9.5,0,17.2-7.7,17.2-17.1
			C119.6,75,112,67.4,102.5,67.4z M102.5,96.4c-6.6,0-11.9-5.3-11.9-11.9c0-6.6,5.3-11.9,11.9-11.9c6.6,0,11.9,5.3,11.9,11.9
			C114.4,91.1,109.1,96.4,102.5,96.4z M209.2,49.8h-23.6c-12-8.1-28.5-13.2-47.3-13.2c-18.9,0-36.4,5.1-48.5,13.2H67.3
			c3.7,4.3,6.4,10.1,7.1,14.1c-4.2,5.8-6.8,13-6.8,20.7c0,19.5,15.8,35.3,35.3,35.3c11.1,0,21-5.1,27.4-13.1c2.6,3.1,7,9.3,7.9,11.1
			c0,0,5.1-7.6,7.9-11.1c6.5,8,16.3,13,27.4,13c19.5,0,35.3-15.8,35.3-35.3c0-7.8-2.5-14.9-6.8-20.7
			C202.8,59.9,205.5,54.1,209.2,49.8z M102.9,113c-15.7,0-28.4-12.7-28.4-28.4c0-15.7,12.7-28.4,28.4-28.4s28.4,12.7,28.4,28.4
			C131.4,100.3,118.6,113,102.9,113z M103,49.3c10.1-4.4,22.7-6.8,35.3-6.8c12.6,0,24.1,2.4,34.2,6.8c-19,0.6-34.2,16.2-34.2,35.3
			C138.2,65.1,122.4,49.3,103,49.3z M173.6,113c-15.7,0-28.4-12.7-28.4-28.4c0-15.7,12.7-28.4,28.4-28.4c15.7,0,28.4,12.7,28.4,28.4
			C202,100.3,189.3,113,173.6,113z M173.6,67.3c-9.5,0-17.1,7.7-17.1,17.2c0,9.5,7.7,17.1,17.1,17.1c9.5,0,17.1-7.7,17.1-17.1
			C190.7,75,183,67.3,173.6,67.3z M173.6,96.3c-6.6,0-11.9-5.3-11.9-11.9c0-6.6,5.3-11.9,11.9-11.9s11.9,5.3,11.9,11.9
			C185.4,91,180.1,96.3,173.6,96.3z"/>
		<g>
			<g>
				<path class="st0" d="M217.2,55.5H216v-4.7h1.7c0.8,0,1.9,0.1,1.9,1.4c0,0.6-0.3,1.1-1,1.2l1.1,2.1h-1.2l-1-1.9h-0.4V55.5z
					 M217.2,52.8c0.6,0,0.7,0,0.9-0.1c0.4-0.1,0.4-0.4,0.4-0.6c0-0.3-0.1-0.5-0.3-0.6c-0.2-0.1-0.3-0.1-0.9-0.1V52.8z"/>
			</g>
			<path class="st0" d="M217.9,49c-2.4,0-4.3,1.9-4.3,4.3c0,2.4,1.9,4.3,4.3,4.3c2.4,0,4.3-1.9,4.3-4.3
				C222.2,50.9,220.2,49,217.9,49z M217.9,56.8c-1.9,0-3.5-1.6-3.5-3.5c0-1.9,1.6-3.5,3.5-3.5c1.9,0,3.5,1.6,3.5,3.5
				C221.4,55.2,219.8,56.8,217.9,56.8z"/>
		</g>
	</g>
</g>
<g>
	<g>
		<g>
			<path class="st0" d="M246.4,153.3h-1.1v-4.7h1.7c0.8,0,1.9,0.1,1.9,1.4c0,0.6-0.3,1-1,1.2l1.1,2.1h-1.2l-1-1.9h-0.4V153.3z
				 M246.4,150.6c0.6,0,0.7,0,0.9-0.1c0.4-0.1,0.4-0.4,0.4-0.6c0-0.3-0.1-0.5-0.3-0.6c-0.2-0.1-0.3-0.1-0.9-0.1V150.6z"/>
		</g>
		<path class="st0" d="M247.2,146.8c-2.4,0-4.3,1.9-4.3,4.3c0,2.4,1.9,4.3,4.3,4.3c2.4,0,4.3-1.9,4.3-4.3
			C251.4,148.8,249.5,146.8,247.2,146.8z M247.2,154.6c-1.9,0-3.5-1.6-3.5-3.5c0-1.9,1.6-3.5,3.5-3.5c1.9,0,3.5,1.6,3.5,3.5
			C250.6,153,249.1,154.6,247.2,154.6z"/>
	</g>
	<g>
		<path class="st0" d="M41.5,152.6v-3.9h-6.3v-5.8l-4.9,1.4v4.4h-3.7v3.9h3.7V165c0,5.5,2.3,8.3,6.7,8.3c1.6,0,3-0.2,4.1-0.6
			l0.1-0.1l-0.2-3.8l-0.2,0.1c-0.6,0.2-1.5,0.3-2.5,0.3c-1.1,0-1.9-0.3-2.4-1c-0.5-0.7-0.8-1.9-0.8-3.4v-12.1H41.5z"/>
		<path class="st0" d="M58.2,148.3c-0.5-0.1-0.9-0.1-1.3-0.1c-1.5,0-2.9,0.5-4.2,1.4c-1.1,0.8-1.9,1.9-2.5,3.2l-0.3-4.1h-4.4l0,0.2
			c0.1,1.9,0.2,4.5,0.2,7.5v16.4h5v-12.7c0-2.3,0.6-4.1,1.7-5.4c1.1-1.2,2.5-1.9,4.1-1.9c0.6,0,1.1,0,1.5,0.1l0.2,0.1v-4.7
			L58.2,148.3z"/>
		<g>
			<rect x="62.7" y="148.7" class="st0" width="5" height="24.1"/>
			<path class="st0" d="M65.2,144.8c0.9,0,1.7-0.3,2.3-0.9c0.6-0.6,0.9-1.3,0.9-2.2c0-0.9-0.3-1.6-0.9-2.2c-0.6-0.6-1.3-0.9-2.2-0.9
				c-0.9,0-1.7,0.3-2.3,0.9c-0.6,0.6-0.9,1.3-0.9,2.2c0,0.9,0.3,1.6,0.9,2.2C63.5,144.5,64.3,144.8,65.2,144.8z"/>
		</g>
		<path class="st0" d="M91.8,151.5c-1.9-2.3-4.4-3.5-7.3-3.5c-3.5,0-6.3,1.4-8.2,4.1l-0.2-3.6h-4.5l0,0.3c0.1,2,0.2,4.6,0.2,7.8
			v25.9h5v-12.3c0.7,0.9,1.6,1.6,2.6,2.2c1.3,0.7,2.8,1,4.4,1c3.1,0,5.7-1.2,7.8-3.6c2.1-2.4,3.1-5.6,3.1-9.5
			C94.7,156.8,93.7,153.8,91.8,151.5z M79.6,153.5c1.1-0.8,2.2-1.1,3.5-1.1c2,0,3.5,0.8,4.7,2.3c1.2,1.6,1.8,3.6,1.8,5.9
			c0,2.7-0.6,4.8-1.8,6.4c-1.2,1.6-2.8,2.3-4.9,2.3c-1.7,0-3.1-0.6-4.3-1.9c-1.2-1.2-1.8-2.8-1.8-4.6V159c0-0.7,0.2-1.6,0.6-2.7
			C77.8,155.2,78.5,154.3,79.6,153.5z"/>
		<path class="st0" d="M116.8,172.6c-0.3-1.4-0.4-3.3-0.4-5.6v-8.7c0-3.2-0.8-5.8-2.4-7.5c-1.6-1.7-4-2.6-7.1-2.6
			c-3.2,0-6,0.7-8.3,2.2l-0.1,0.1l1.2,3.4l0.2-0.1c1.9-1.2,4-1.8,6.4-1.8c1.7,0,3.1,0.5,4,1.4c0.9,0.9,1.3,2.2,1.3,3.8v0.2
			c-4.7,0-8.4,0.8-10.8,2.3c-2.5,1.5-3.8,3.8-3.8,6.8c0,1.9,0.7,3.6,2.1,4.9c1.4,1.4,3.3,2.1,5.5,2.1c3.1,0,5.6-1.1,7.4-3.3l0.5,2.8
			h4.6L116.8,172.6z M109.9,168c-1.1,1-2.6,1.6-4.2,1.6c-1.2,0-2.1-0.3-2.8-1c-0.7-0.7-1.1-1.6-1.1-2.8c0-1.5,0.7-2.7,2.1-3.6
			c1.4-0.9,4-1.3,7.6-1.3v3.7C111.6,165.8,111,167,109.9,168z"/>
		<path class="st0" d="M141.9,172.9l0-0.3c-0.1-1.5-0.2-3.6-0.2-6.2v-29h-5V151c-0.7-0.8-1.5-1.4-2.4-1.9c-1.3-0.7-2.8-1-4.4-1
			c-3,0-5.6,1.2-7.7,3.7c-2,2.4-3.1,5.6-3.1,9.4c0,3.5,1,6.5,2.9,8.8c2,2.3,4.4,3.5,7.4,3.5c1.8,0,3.5-0.4,4.9-1.3
			c1.1-0.7,2.1-1.6,2.8-2.7l0.3,3.5H141.9z M136.7,158.7v3.8c0,2-0.6,3.7-1.8,4.9c-1.2,1.2-2.6,1.8-4.2,1.8c-2.1,0-3.7-0.8-4.8-2.3
			c-1.2-1.6-1.8-3.6-1.8-6c0-2.6,0.6-4.7,1.9-6.2c1.2-1.6,2.8-2.3,4.8-2.3c1.6,0,3,0.6,4.2,1.8C136.1,155.2,136.7,156.8,136.7,158.7
			z"/>
		<path class="st0" d="M162.2,148.7c0,0-6.2,12.6-6.6,14c-0.6-1.7-6.7-14-6.7-14h-5.4l12.1,24.1l11.9-24.1H162.2z"/>
		<g>
			<rect x="169.9" y="148.7" class="st0" width="5" height="24.1"/>
			<path class="st0" d="M172.3,144.8c0.9,0,1.7-0.3,2.3-0.9c0.6-0.6,0.9-1.3,0.9-2.2c0-0.9-0.3-1.6-0.9-2.2
				c-0.6-0.6-1.3-0.9-2.2-0.9c-0.9,0-1.7,0.3-2.3,0.9c-0.6,0.6-0.9,1.3-0.9,2.2c0,0.9,0.3,1.6,0.9,2.2
				C170.7,144.5,171.4,144.8,172.3,144.8z"/>
		</g>
		<path class="st0" d="M194.4,161.6c-1-1.1-2.7-2.1-5-3c-1.8-0.7-3.1-1.3-3.6-1.8c-0.6-0.5-0.8-1.2-0.8-2c0-0.9,0.3-1.6,1-2.1
			c0.7-0.6,1.6-0.8,2.7-0.8c1.7,0,3.4,0.5,5,1.4l0.2,0.1l1.3-3.7l-0.1-0.1c-1.7-1-3.8-1.5-6.2-1.5c-2.6,0-4.7,0.7-6.3,2.1
			c-1.6,1.4-2.4,3.1-2.4,5.2c0,3.1,2.2,5.4,6.6,6.9c1.6,0.5,2.8,1.1,3.4,1.7c0.6,0.6,0.9,1.3,0.9,2.3c0,1-0.4,1.8-1.1,2.3
			c-0.8,0.6-1.9,0.9-3.3,0.9c-2,0-4-0.6-5.9-1.7l-0.2-0.1l-1.2,3.9l0.1,0.1c2.1,1.1,4.4,1.7,7,1.7c2.9,0,5.1-0.7,6.8-2
			c1.7-1.4,2.5-3.2,2.5-5.4C195.9,164.2,195.4,162.8,194.4,161.6z"/>
		<path class="st0" d="M218.6,151.6c-2.1-2.3-4.9-3.5-8.3-3.5c-3.4,0-6.3,1.2-8.5,3.5c-2.2,2.3-3.4,5.4-3.4,9.3
			c0,3.6,1.1,6.6,3.3,8.9c2.2,2.3,5,3.5,8.3,3.5c2.1,0,4.1-0.5,6-1.6c1.8-1,3.3-2.5,4.3-4.5c1-1.9,1.5-4.2,1.5-6.8
			C221.8,156.9,220.7,153.9,218.6,151.6z M210,169.6c-1.9,0-3.5-0.8-4.8-2.5c-1.3-1.6-1.9-3.8-1.9-6.3c0-2.5,0.6-4.7,1.9-6.4
			c1.2-1.7,2.9-2.5,5-2.5c2.1,0,3.7,0.9,4.9,2.5c1.2,1.7,1.8,3.8,1.8,6.2c0,2.6-0.7,4.8-2,6.4C213.6,168.7,212,169.6,210,169.6z"/>
		<path class="st0" d="M238.4,148.3c-0.5-0.1-0.9-0.1-1.3-0.1c-1.5,0-2.9,0.5-4.2,1.4c-1.1,0.8-1.9,1.9-2.5,3.2l-0.3-4.1h-4.4l0,0.2
			c0.1,1.9,0.2,4.5,0.2,7.5v16.4h5v-12.7c0-2.3,0.6-4.1,1.7-5.4c1.1-1.2,2.5-1.9,4.1-1.9c0.6,0,1.1,0,1.5,0.1l0.2,0.1v-4.7
			L238.4,148.3z"/>
	</g>
</g>
</svg>
