<?xml version="1.0" encoding="utf-8"?>
<!-- Generator: Adobe Illustrator 22.0.0, SVG Export Plug-In . SVG Version: 6.00 Build 0)  -->
<svg version="1.1" id="Layer_1" xmlns="http://www.w3.org/2000/svg" xmlns:xlink="http://www.w3.org/1999/xlink" x="0px" y="0px"
	 viewBox="0 0 50.3 50.3" style="enable-background:new 0 0 50.3 50.3;" xml:space="preserve">
<style type="text/css">
	.st0{fill:#FFFFFF;}
	.st1{fill:none;stroke:#17559F;stroke-width:2;stroke-miterlimit:10;}
	.st2{fill:#17559F;}
</style>
<circle class="st0" cx="24.6" cy="25.2" r="18.8"/>
<line class="st1" x1="29.7" y1="19.2" x2="29.7" y2="19.2"/>
<image style="overflow:visible;" width="1920" height="321" xlink:href="E1577543.jpg"  transform="matrix(1 0 0 1 -7652 -7652)">
</image>
<path class="st2" d="M35.6,16.2c-1,0.7-2,1.2-3.1,1.5c-1.6-1.9-4.5-2.1-6.3-0.4c-1,0.9-1.6,2.1-1.5,3.4v1c-3.6,0.1-6.9-1.6-9-4.5
	c0,0-4,9,5,13c-2.1,1.4-4.5,2.1-7,2c9,5,20,0,20-11.5c0-0.3,0-0.6-0.1-0.8C34.6,18.9,35.3,17.6,35.6,16.2z"/>
</svg>
