<?xml version="1.0" encoding="utf-8"?>
<!-- Generator: Adobe Illustrator 22.0.0, SVG Export Plug-In . SVG Version: 6.00 Build 0)  -->
<svg version="1.1" id="Layer_1" xmlns="http://www.w3.org/2000/svg" xmlns:xlink="http://www.w3.org/1999/xlink" x="0px" y="0px"
	 viewBox="0 0 669.9 163.3" style="enable-background:new 0 0 669.9 163.3;" xml:space="preserve">
<style type="text/css">
	.st0{fill:#FFFFFF;}
</style>
<path class="st0" d="M243,113.3c-1.2,3.8-5.9,9-16.2,9c-7.3,0-12.7-2.2-15.3-6.4c-1.6-2.5-2.1-4.4-2.1-9V73.6h9.8V105
	c0,3,0.3,4.7,0.8,5.7c1.1,2.1,3.4,3.3,6.5,3.3c4.2,0,6.9-2.1,7.3-5.6c0.1-1,0.1-1.7,0.1-4.3V73.5h9.8v32.2
	C243.7,110.4,243.6,111.2,243,113.3"/>
<path class="st0" d="M270.7,94.3c-0.9-0.5-1.6-0.7-2.7-0.7c-2.1,0-3.9,1-5.6,2.9v24.9h-9.2V97.9c0-4.7-0.6-8.3-1.3-10.3l8.3-2.2
	c0.8,1.5,1.3,3,1.4,5c2-2.7,4.8-5,8.3-5c1.4,0,2,0.1,3.4,0.8L270.7,94.3z"/>
<path class="st0" d="M299.9,122.4c-1.2-0.8-2.1-2-2.8-3.5c-2.3,2.2-5.6,3.4-9.3,3.4c-4.9,0-9.2-2.3-10.4-5.7c-0.6-1.6-0.8-3.4-0.8-7
	V87l9.1-1.7V108c0,3.2,0.3,4.8,0.8,5.8s1.9,1.6,3.2,1.6c2.3,0,5-1.6,5.7-3.4V87.2l8.8-1.9v26.9c0,2.4,0.8,4.7,2.1,6.4L299.9,122.4z"
	/>
<path class="st0" d="M348.8,90.1l-3.8-5.8c-2.1,1.9-4.7,3-7.3,3c-1.2,0-2.4-0.3-4.3-0.7c-2.6-0.6-4.4-0.9-6.3-0.9
	c-9,0-14.9,4.7-14.9,11.9c0,5.2,2.5,8.5,7.6,9.8c-5.8,1.5-6.5,3.6-6.5,5.9c0,2.4,1,4,2.7,4.6c1.7,0.7,4.3,1,8.5,1.1l3.9,0.1
	c3.7,0.1,6.5,1,6.5,4.2c0,1.4-0.9,2.8-2.3,3.6c-1.4,0.9-3.4,1.1-5.8,1.1c-4.3,0-6.6-1.5-6.6-4.3c0-1,0.1-1.4,0.4-2.3H312
	c-0.3,0.7-0.8,1.6-0.8,3.6c0,2.4,1,4.5,2.9,6.2c3.2,3,8.3,3.8,13.3,3.8c5.5,0,10.8-1.2,13.9-4.5c1.9-2.1,2.8-4.3,2.8-7.3
	c0-3.2-1-5.6-3-7.5c-2.5-2.3-5.3-3.1-10.6-3.2l-5-0.1c-1,0-1.5-0.3-1.5-0.8c0-1,1.3-1.8,3.6-2.9c0.7,0.1,1,0.1,1.4,0.1
	c7.5,0,13-4.4,13-10.4c0-2.4-0.7-4.1-2.1-5.8c0.6,0.1,1.5,0.2,2.4,0.2C344.9,92.7,346.8,91.9,348.8,90.1 M332.5,97.6
	c0,3.2-2,5-5.7,5c-3.2,0-5.4-1.5-5.4-5c0-3.3,2-5.2,5.5-5.2C330.4,92.3,332.5,94.3,332.5,97.6"/>
<path class="st0" d="M374.8,122.4c-1.2-0.8-2.1-2-2.8-3.5c-2.3,2.2-5.6,3.4-9.3,3.4c-4.9,0-9.2-2.3-10.4-5.7c-0.5-1.6-0.8-3.4-0.8-7
	V87l9.1-1.7V108c0,3.2,0.3,4.8,0.8,5.8s1.9,1.6,3.2,1.6c2.3,0,5-1.6,5.7-3.4V87.2l8.8-1.9v26.9c0,2.4,0.8,4.7,2.1,6.4L374.8,122.4z"
	/>
<path class="st0" d="M417.5,117.6c-3.1-2.3-3.4-4-3.3-7.8l0.2-11.9c0-3.8-0.1-4.9-0.6-6.3c-1.4-3.9-5.4-6.1-11.4-6.1
	c-3.2,0-6.2,0.6-9.6,2.1c-2.5,1-3.8,1.7-5.7,2.9l3.9,6.6c3.8-2.5,7.2-4,10.2-4c3.4,0,4.1,1.3,4.1,5.3v1.4c-0.8-0.1-1.4-0.1-2.1-0.1
	c-11.2,0-16.9,3.9-16.9,12.1c0,7,4.3,11,12.1,11c2.9,0,5.4-0.7,7.1-1.9c0.7-0.5,1.4-1.2,2.1-1.9c0.9,1.8,2.8,3.4,4.9,4.3
	L417.5,117.6z M405.2,106l-0.1,7.6c-1.4,1.5-3.1,2.4-4.8,2.4c-2.3,0-4.1-1.8-4.1-4.6c0-4.2,2.2-5.4,8.6-5.4H405.2z"/>
<path class="st0" d="M440.6,122c-2.4,6.8-4.2,9.7-6.7,11.6c-2.3,1.7-5.4,2.8-8.5,3.2l-3.1-6.1c2-0.6,4.3-1.4,5.7-2.3
	c1-0.8,1.8-1.7,2.6-2.9c0.9-1.5,1.2-2.1,2-4.1h-2.3c-1.1-3.3-3-8.8-3.3-9.9l-8.3-24.8l9.4-1.1l6.1,20.6c0.6,2.1,1.9,7.3,1.9,7.3
	s0.7-3.9,1.1-5.6c0.3-1.2,0.8-3.2,1.4-4.9l5.3-16.8h9.7L440.6,122z"/>
<path class="st0" d="M487.4,121.4h-6.9l-7.8-26.2c-1.7-5.8-3-11.7-3.1-12.5c-0.1,1-1,7.5-2.1,13.1l-5.2,25.6h-6.7l10-47.3h7.6
	l8.2,27.3c1.4,4.8,2.2,10,2.3,10.8c0.1-0.9,1.2-8.2,2.4-14.1L491,74h6.5L487.4,121.4z"/>
<path class="st0" d="M530.3,88.8c-2.8-1.9-6.4-2.8-10.2-2.8c-5.4,0-10.1,2.1-13.8,5.7c-4.5,4.5-7.2,12.3-7.2,19.5
	c0,7.5,3.8,10.9,8.5,10.9c5,0,8.9-2.4,11.3-6.1c-0.1,2.9,0.6,4.8,2.5,6.7l5.2-3.9c-1.7-1.8-2.4-3.4-1.2-8.5l2.9-13.9
	C528.9,93.9,529.8,90.5,530.3,88.8 M523.2,91.9l-3.7,17.4c-2.1,4.3-5.9,7.5-9.3,7.5c-2.9,0-4.4-1.6-4.4-5.8c0-4.9,1.4-11.6,4.7-15.5
	c2.8-3.3,5.4-4.5,9.1-4.5C520.9,91.1,522.3,91.4,523.2,91.9"/>
<path class="st0" d="M554.5,91.6h-7.1l-4.1,19.5c-0.3,1.4-0.5,2.6-0.5,3.6c0,2.3,1,3.2,3.4,3.2c1.4,0,2.5-0.3,3.6-0.7v3.9
	c-2.1,1-4.3,1.4-6.7,1.4c-4.3,0-6.6-2.2-6.6-5.7c0-1.6,0.1-3,0.5-4.9l4.3-20.3h-4.2l0.9-4.7h4.3c0.7-2.9,1.5-5.9,2.3-8.5l6.9-1.5
	c-1,2.7-2.2,6.9-2.8,10h8.4L554.5,91.6z"/>
<path class="st0" d="M582.9,111.2c-0.8,4-0.7,6,0.8,8.2l-5.2,3.4c-1.6-1.7-2.5-3.7-2.3-6.8c-3.8,4.4-8.1,6.6-12.3,6.6
	c-4.7,0-7.6-2.2-7.6-7c0-1.6,0.2-3.5,0.5-5.2l4.9-23.1l6.5-1.2l-4.8,22.9c-0.4,1.9-0.6,3.4-0.6,4.5c0,2.7,1,3.7,3.1,3.7
	c3.2,0,7.9-2.8,11.1-7.8l4.7-22l6.5-1.2L582.9,111.2z"/>
<path class="st0" d="M614.8,92.9c-0.7-0.3-1.3-0.4-2.3-0.4c-2.8,0-6,2.4-9.2,7l-4.6,21.9h-6.3l5-23.2c1-4.9,1.1-7.3,0.3-9.7l5.9-2.6
	c0.8,1.9,1,4.4,0.4,7.6c3.2-4.5,7.5-7.4,10.7-7.4c1.3,0,1.9,0.1,2.8,0.4L614.8,92.9z"/>
<path class="st0" d="M646,88.8c-2.8-1.9-6.4-2.8-10.2-2.8c-5.4,0-10.1,2.1-13.8,5.7c-4.5,4.5-7.2,12.3-7.2,19.5
	c0,7.5,3.8,10.9,8.5,10.9c5,0,8.9-2.4,11.3-6.1c-0.1,2.9,0.6,4.8,2.6,6.7l5.2-3.9c-1.7-1.8-2.3-3.4-1.2-8.5l2.9-13.9
	C644.6,93.9,645.5,90.5,646,88.8 M638.9,91.9l-3.7,17.4c-2.1,4.3-5.9,7.5-9.3,7.5c-2.9,0-4.4-1.6-4.4-5.8c0-4.9,1.4-11.6,4.7-15.5
	c2.8-3.3,5.4-4.5,9.1-4.5C636.6,91.1,638,91.4,638.9,91.9"/>
<path class="st0" d="M664.8,82.7l-6.3,29.4c-0.4,1.8-0.6,2.9-0.6,3.6c0,1.2,0.6,1.7,1.6,1.7c0.3,0,0.9,0,1.2-0.1l0.3,4.1
	c-1.5,0.6-3,0.8-4.6,0.8c-3.4,0-5.2-1.7-5.2-4.7c0-1,0.2-2.3,0.6-3.9l6.4-30.4c1-4.6,1.1-8.1,0.4-10.3l6.7-2.4
	C666.1,73.1,665.7,78.5,664.8,82.7"/>
<path class="st0" d="M14.2,11.1C7.1,27,3.2,45.3,4.6,65.2c3.8,53,41.4,94.4,82.9,91.4c23.4-1.7,43.4-17.1,55.6-39.7
	c2.8-5.2,1.6-8.1-2.7-3.6C86,170.8,18.1,110.6,15.6,42.7c-0.8-10.9-0.3-21.5,1.3-31.6C17.6,6.6,15.6,7.9,14.2,11.1"/>
<path class="st0" d="M101.1,42.7c2.9,2,5.7,3.6,9.1,3.5c0.4,0,1.1,0.1,1.4,0.6c0.1,0.3,0.5,0.9-0.2,1.7c-2.8,2.9-7.1,5-11.8,5.8
	c1.5,3.1,3.1,6,6.1,7.5c0.4,0.2,1,0.6,0.9,1.2c0,0.4,0,1.1-1,1.4c-3.8,1.1-8.6,0.8-13.1-0.9C92.2,67,92.2,70.2,94,73
	c0.2,0.3,0.5,1,0.2,1.6c-0.2,0.3-0.6,0.9-1.6,0.7c-3.9-1-7.8-3.6-10.9-7.3c-2,2.8-3.6,5.6-3.5,9c0,0.4,0,1.1-0.6,1.4
	c-0.3,0.1-1,0.5-1.8-0.3c-2.8-2.8-4.9-7.1-5.7-11.8c-3.1,1.5-6,3.1-7.5,6.1c-0.2,0.4-0.6,0.9-1.3,0.9c-0.3,0-1-0.1-1.4-1
	c-1.1-3.9-0.7-8.6,0.9-13.1c-3.5-0.3-6.7-0.3-9.6,1.5c-0.4,0.2-1,0.5-1.5,0.2c-0.3-0.2-0.9-0.6-0.7-1.6c1-3.9,3.7-7.8,7.4-10.9
	c-2.9-2-5.7-3.6-9.1-3.5c-0.4,0.1-1.1,0-1.4-0.6c-0.2-0.3-0.5-1,0.2-1.8c2.8-2.9,7.1-4.9,11.8-5.8c-1.4-3.1-3.1-6-6.1-7.5
	c-0.4-0.2-0.9-0.6-0.9-1.3c0-0.3,0-1,1-1.4c3.8-1.1,8.6-0.7,13.1,0.9c0.3-3.4,0.3-6.7-1.5-9.6c-0.2-0.3-0.5-0.9-0.2-1.5
	c0.2-0.3,0.6-0.9,1.6-0.7c3.8,1,7.8,3.7,10.9,7.3c2-2.8,3.6-5.6,3.5-9.1c-0.1-0.4,0-1.1,0.6-1.4c0.3-0.2,1-0.5,1.8,0.2
	c2.9,2.7,4.9,7,5.7,11.8c3.1-1.4,6-3.1,7.5-6.1c0.2-0.4,0.6-0.9,1.3-0.9c0.3,0,1,0,1.4,1c1.1,3.8,0.7,8.6-0.9,13.1
	c3.5,0.3,6.7,0.4,9.6-1.6c0.3-0.2,1-0.5,1.5-0.1c0.3,0.2,0.9,0.6,0.7,1.6C107.5,35.6,104.8,39.6,101.1,42.7"/>
<path class="st0" d="M68.7,118.8c-6-2.9-6.9-6.9,2.2-6.8c52.2,0.4,74.6-58.7,73.7-104c-0.1-3.9,1.6-5.2,3.2-0.2
	c2.6,8.1,4.3,16.9,5,26.1c3.4,47.2-22.5,87.8-57.7,90.4C85.9,124.9,77,122.8,68.7,118.8"/>
</svg>
