<?xml version="1.0" encoding="utf-8"?>
<!-- Generator: Adobe Illustrator 22.0.0, SVG Export Plug-In . SVG Version: 6.00 Build 0)  -->
<svg version="1.1" id="Layer_1" xmlns="http://www.w3.org/2000/svg" xmlns:xlink="http://www.w3.org/1999/xlink" x="0px" y="0px"
	 viewBox="0 0 128 128" style="enable-background:new 0 0 128 128;" xml:space="preserve">
<style type="text/css">
	.st0{fill:#FFFFFF;}
</style>
<g>
	<g>
		<path class="st0" d="M74.2,92c-3.8-1.9-10-5-11.6-6.5c6.4-7.8,10.1-16.7,10.1-24.4c0-5.3,0-11.8-2.9-17.6C67.1,38.3,61.2,32,48,32
			s-19.1,6.3-21.7,11.5c-2.9,5.8-2.9,12.4-2.9,17.6c0,7.7,3.7,16.6,10.1,24.4c-1.5,1.4-7.8,4.6-11.6,6.5c-7.5,3.7-12.2,6.2-15,9
			C0.5,107.3,0,117.8,0,119.9s0.8,4.2,2.3,5.7S5.9,128,8,128h80c2.1,0,4.2-0.9,5.7-2.4s2.3-3.6,2.3-5.7c0-2-0.5-12.6-6.8-18.9
			C86.4,98.2,81.6,95.7,74.2,92z M8,120c0.1-3.4,1.1-9.9,4.4-13.3c2-2,6.6-4.4,13-7.5c7.5-3.8,11.5-5.9,13.5-7.8l5.4-5.1l-4.7-5.8
			C34.3,74,31.3,67,31.3,61.1c0-4.6,0-9.9,2.1-14C35.8,42.3,40.6,40,48,40s12.2,2.3,14.6,7.1c2.1,4.1,2.1,9.4,2.1,14
			c0,5.8-3,12.9-8.3,19.4l-4.7,5.8l5.4,5.1c2,1.9,6,4,13.5,7.8c6.4,3.2,11,5.6,13,7.5c3.4,3.4,4.4,10,4.4,13.3L8,120z M121.2,69
			c-2.8-2.8-7.6-5.3-15-9c-3.8-1.9-10-5-11.6-6.5c6.4-7.8,10.1-16.7,10.1-24.4c0-5.3,0-11.8-2.9-17.6C99.1,6.3,93.2,0,80,0
			S60.9,6.3,58.3,11.5c-2.8,5.4-3,11.5-3,16.5h8c0-4.4,0.2-9.1,2.1-12.9C67.8,10.3,72.6,8,80,8s12.2,2.3,14.6,7.1
			c2.1,4.1,2.1,9.4,2.1,14c0,5.8-3,12.9-8.3,19.3l-4.7,5.8l5.4,5.1c2,1.9,6,4,13.5,7.8c6.4,3.2,11,5.6,13,7.5
			c3.4,3.4,4.4,10,4.4,13.3H84l12,8h24c2.1,0,4.2-0.9,5.7-2.4s2.3-3.6,2.3-5.7C128,85.8,127.5,75.3,121.2,69z"/>
	</g>
</g>
</svg>
